<?xml version="1.0" encoding="UTF-8" standalone="no"?>
<!-- Created with Inkscape (http://www.inkscape.org/) -->
<svg xmlns:dc="http://purl.org/dc/elements/1.1/" xmlns:cc="http://creativecommons.org/ns#" xmlns:rdf="http://www.w3.org/1999/02/22-rdf-syntax-ns#" xmlns:svg="http://www.w3.org/2000/svg" xmlns="http://www.w3.org/2000/svg" xmlns:sodipodi="http://sodipodi.sourceforge.net/DTD/sodipodi-0.dtd" xmlns:inkscape="http://www.inkscape.org/namespaces/inkscape" width="65.53672" height="65.536415" id="svg2" sodipodi:version="0.32" inkscape:version="0.46" sodipodi:docname="Orange_logo.svg" inkscape:output_extension="org.inkscape.output.svg.inkscape" version="1.0">
  <defs id="defs4">
    <inkscape:perspective sodipodi:type="inkscape:persp3d" inkscape:vp_x="0 : 526.18109 : 1" inkscape:vp_y="0 : 1000 : 0" inkscape:vp_z="744.09448 : 526.18109 : 1" inkscape:persp3d-origin="372.04724 : 350.78739 : 1" id="perspective10"/>
    <inkscape:perspective id="perspective2468" inkscape:persp3d-origin="0.5 : 0.33333333 : 1" inkscape:vp_z="1 : 0.5 : 1" inkscape:vp_y="0 : 1000 : 0" inkscape:vp_x="0 : 0.5 : 1" sodipodi:type="inkscape:persp3d"/>
  </defs>
  <sodipodi:namedview id="base" pagecolor="#ffffff" bordercolor="#666666" borderopacity="1.0" gridtolerance="10000" guidetolerance="10" objecttolerance="10" inkscape:pageopacity="0.0" inkscape:pageshadow="2" inkscape:zoom="1.2417145" inkscape:cx="359.1254" inkscape:cy="-25.58482" inkscape:document-units="px" inkscape:current-layer="layer1" showgrid="false" inkscape:window-width="1280" inkscape:window-height="943" inkscape:window-x="-4" inkscape:window-y="-4"/>
  <metadata id="metadata7">
    <rdf:RDF>
      <cc:Work rdf:about="">
        <dc:format>image/svg+xml</dc:format>
        <dc:type rdf:resource="http://purl.org/dc/dcmitype/StillImage"/>
      </cc:Work>
    </rdf:RDF>
  </metadata>
  <g inkscape:label="Layer 1" inkscape:groupmode="layer" id="layer1" transform="translate(-34.484478,-807.3363)">
    <rect style="opacity:1;fill:#ff6000;fill-opacity:1;stroke:#c94d00;stroke-width:0.09619379;stroke-opacity:1" id="rect2474" width="65.41172" height="65.411415" x="34.546978" y="807.3988" ry="0"/>
    <path style="font-size:175px;font-style:normal;font-variant:normal;font-weight:bold;font-stretch:normal;text-align:start;line-height:100%;writing-mode:lr-tb;text-anchor:start;fill:#ffffff;fill-opacity:1;stroke:none;font-family:Arial;-inkscape-font-specification:Arial Bold" d="M 37.989679,862.53637 C 37.989678,861.76921 38.17873,861.0267 38.556837,860.30884 C 38.934941,859.59099 39.47059,859.04302 40.163785,858.6649 C 40.856975,858.28681 41.630994,858.09775 42.485846,858.09774 C 43.806469,858.09775 44.888726,858.52655 45.732622,859.38413 C 46.5765,860.24172 46.998443,861.32534 46.998453,862.63501 C 46.998443,863.95564 46.57239,865.05023 45.720292,865.91878 C 44.868177,866.78732 43.795509,867.22159 42.502286,867.22159 C 41.702231,867.22159 40.939172,867.04076 40.213103,866.6791 C 39.487029,866.31743 38.934941,865.78726 38.556837,865.08859 C 38.17873,864.38992 37.989678,863.53918 37.989679,862.53637 z M 40.356948,862.65967 C 40.356945,863.52548 40.562437,864.18853 40.973424,864.64883 C 41.384404,865.10914 41.891284,865.33929 42.494066,865.33929 C 43.096836,865.33929 43.602348,865.10914 44.010598,864.64883 C 44.418835,864.18853 44.622957,863.52 44.622965,862.64323 C 44.622957,861.78839 44.418835,861.13082 44.010598,860.6705 C 43.602348,860.21021 43.096836,859.98006 42.494066,859.98005 C 41.891284,859.98006 41.384404,860.21021 40.973424,860.6705 C 40.562437,861.13082 40.356945,861.79387 40.356948,862.65967 z M 51.026099,867.02432 L 48.716367,867.02432 L 48.716367,858.29502 L 50.861706,858.29502 L 50.861706,859.53619 C 51.228848,858.94986 51.559004,858.56353 51.852177,858.37721 C 52.145341,858.19091 52.478237,858.09775 52.850868,858.09774 C 53.376922,858.09775 53.883803,858.24297 54.37151,858.53339 L 53.656398,860.54721 C 53.267327,860.29515 52.905661,860.16911 52.571399,860.1691 C 52.248087,860.16911 51.974097,860.25816 51.749431,860.43624 C 51.524756,860.61434 51.348033,860.93628 51.219261,861.40206 C 51.090482,861.86784 51.026095,862.84325 51.026099,864.32827 L 51.026099,867.02432 z M 57.084005,860.9582 L 54.987987,860.58009 C 55.223616,859.73621 55.62912,859.11151 56.204499,858.706 C 56.779874,858.3005 57.63472,858.09775 58.769042,858.09774 C 59.799236,858.09775 60.566405,858.21968 61.070554,858.46352 C 61.574687,858.70738 61.929504,859.01699 62.135002,859.39234 C 62.340487,859.76772 62.443233,860.4568 62.44324,861.4596 L 62.418582,864.15565 C 62.418573,864.92282 62.455562,865.48861 62.529546,865.85302 C 62.603515,866.21742 62.74188,866.60786 62.94464,867.02432 L 60.659571,867.02432 C 60.599287,866.87089 60.525309,866.64348 60.437636,866.34209 C 60.399272,866.20509 60.371873,866.11468 60.35544,866.07084 C 59.960889,866.45442 59.538946,866.74211 59.089608,866.93391 C 58.640263,867.1257 58.160781,867.22159 57.651166,867.22159 C 56.752476,867.22159 56.044214,866.97774 55.526376,866.49004 C 55.008535,866.00234 54.749616,865.38587 54.749616,864.64061 C 54.749616,864.14744 54.867431,863.70768 55.103062,863.32135 C 55.338692,862.93503 55.668849,862.63913 56.093535,862.43363 C 56.518216,862.22814 57.130581,862.04868 57.930632,861.89524 C 59.010147,861.69249 59.758139,861.50344 60.174609,861.32808 L 60.174609,861.09793 C 60.174602,860.65407 60.065004,860.33762 59.845821,860.14856 C 59.626622,859.95951 59.2129,859.86498 58.60465,859.86498 C 58.19366,859.86498 57.873093,859.94581 57.642944,860.10746 C 57.412792,860.26912 57.226478,860.5527 57.084005,860.9582 z M 60.174609,862.83228 C 59.878693,862.93092 59.410171,863.04874 58.769042,863.18573 C 58.127903,863.32273 57.708698,863.45698 57.511431,863.58849 C 57.210039,863.80221 57.059344,864.07346 57.059347,864.40224 C 57.059344,864.72555 57.179898,865.00502 57.421013,865.24065 C 57.662122,865.47628 57.968987,865.5941 58.341619,865.5941 C 58.758079,865.5941 59.155362,865.45711 59.533473,865.18311 C 59.812936,864.97488 59.996509,864.72007 60.084192,864.41868 C 60.144462,864.22141 60.174602,863.84605 60.174609,863.29259 L 60.174609,862.83228 z M 72.66853,867.02432 L 70.358796,867.02432 L 70.358796,862.56925 C 70.35879,861.62673 70.309472,861.01711 70.210843,860.74037 C 70.112198,860.46365 69.951917,860.24857 69.729992,860.09513 C 69.508055,859.9417 69.240914,859.86498 68.928572,859.86498 C 68.528541,859.86498 68.169617,859.97458 67.851792,860.19376 C 67.533961,860.41296 67.316141,860.70339 67.198328,861.06505 C 67.080509,861.42672 67.021601,862.09526 67.021604,863.07065 L 67.021604,867.02432 L 64.711874,867.02432 L 64.711874,858.29502 L 66.857212,858.29502 L 66.857212,859.57729 C 67.618898,858.59093 68.577859,858.09775 69.7341,858.09774 C 70.243715,858.09775 70.709496,858.18954 71.131449,858.3731 C 71.553382,858.55669 71.872579,858.79094 72.08904,859.07589 C 72.305485,859.36084 72.456179,859.68415 72.541124,860.04581 C 72.626051,860.40748 72.66852,860.92532 72.66853,861.59933 L 72.66853,867.02432 z M 74.805647,867.5997 L 77.444165,867.92027 C 77.487999,868.22713 77.589376,868.4381 77.748295,868.55318 C 77.967481,868.71757 78.312708,868.79977 78.783975,868.79977 C 79.386746,868.79977 79.838826,868.70936 80.140221,868.52852 C 80.342968,868.40797 80.496401,868.21344 80.600526,867.94493 C 80.671756,867.75313 80.707373,867.39969 80.707382,866.88459 L 80.707382,865.61053 C 80.016922,866.55306 79.145634,867.02432 78.093522,867.02432 C 76.920842,867.02432 75.992018,866.5284 75.307048,865.53656 C 74.770027,864.75295 74.501517,863.77755 74.50152,862.61035 C 74.501517,861.14725 74.853595,860.02938 75.557747,859.25672 C 76.261898,858.48408 77.137293,858.09775 78.183939,858.09774 C 79.26345,858.09775 80.153916,858.57176 80.855335,859.51975 L 80.855335,858.29502 L 83.017113,858.29502 L 83.017113,866.12837 C 83.017103,867.15858 82.932165,867.92849 82.7623,868.43811 C 82.592418,868.94773 82.354048,869.34775 82.047189,869.63818 C 81.740311,869.92861 81.3307,870.15602 80.818346,870.32042 C 80.305979,870.4848 79.657995,870.567 78.874389,870.56701 C 77.394844,870.567 76.345466,870.31356 75.726253,869.80669 C 75.107032,869.2998 74.797426,868.6573 74.797426,867.87917 C 74.797426,867.80245 74.800167,867.7093 74.805647,867.5997 z M 76.868789,862.47884 C 76.868786,863.40493 77.048248,864.08305 77.407176,864.51321 C 77.7661,864.94337 78.208593,865.15845 78.734654,865.15845 C 79.29907,865.15845 79.775811,864.93789 80.164882,864.49677 C 80.55394,864.05565 80.748472,863.40218 80.748479,862.53637 C 80.748472,861.63221 80.562158,860.96094 80.189539,860.52255 C 79.816907,860.08418 79.345646,859.86498 78.775754,859.86498 C 78.222291,859.86498 77.7661,860.08007 77.407176,860.51022 C 77.048248,860.94039 76.868786,861.5966 76.868789,862.47884 z M 90.365512,864.24607 L 92.667021,864.63239 C 92.371105,865.47628 91.903952,866.11879 91.265564,866.55991 C 90.627163,867.00103 89.828484,867.22159 88.869527,867.22159 C 87.35162,867.22159 86.228268,866.72567 85.499456,865.73383 C 84.924077,864.93927 84.63639,863.93646 84.63639,862.72543 C 84.63639,861.27877 85.014495,860.14582 85.770705,859.32659 C 86.526915,858.50737 87.483137,858.09775 88.639375,858.09774 C 89.938079,858.09775 90.9628,858.52655 91.713537,859.38413 C 92.464261,860.24172 92.823185,861.5555 92.790317,863.32546 L 87.003659,863.32546 C 87.020095,864.01044 87.206409,864.54335 87.562599,864.92419 C 87.918778,865.30504 88.362643,865.49546 88.894188,865.49546 C 89.255847,865.49546 89.559974,865.39682 89.806572,865.19955 C 90.053157,865.00228 90.239468,864.68446 90.365512,864.24607 z M 90.497025,861.91168 C 90.48058,861.24315 90.307966,860.7349 89.979185,860.38693 C 89.650391,860.03897 89.250367,859.86498 88.77911,859.86498 C 88.274964,859.86498 87.858501,860.04856 87.52972,860.4157 C 87.200929,860.78285 87.039275,861.28151 87.044758,861.91168 L 90.497025,861.91168 z" id="flowRoot3246"/>
  </g>
</svg>